<svg width="392" height="84" viewBox="0 0 392 84" fill="none" xmlns="http://www.w3.org/2000/svg">
<path d="M34.848 9.8C43.296 9.8 50.24 11.528 55.68 14.984C61.12 18.376 63.904 23.432 64.032 30.152V31.304H44.16V30.92C44.16 29 43.456 27.4 42.048 26.12C40.64 24.84 38.496 24.2 35.616 24.2C32.8 24.2 30.624 24.616 29.088 25.448C27.616 26.28 26.88 27.304 26.88 28.52C26.88 30.248 27.904 31.528 29.952 32.36C32 33.192 35.296 34.056 39.84 34.952C45.152 36.04 49.504 37.192 52.896 38.408C56.352 39.56 59.36 41.48 61.92 44.168C64.48 46.856 65.792 50.504 65.856 55.112C65.856 62.92 63.2 68.712 57.888 72.488C52.64 76.264 45.6 78.152 36.768 78.152C26.464 78.152 18.432 76.424 12.672 72.968C6.976 69.512 4.128 63.4 4.128 54.632H24.192C24.192 57.96 25.056 60.2 26.784 61.352C28.512 62.44 31.2 62.984 34.848 62.984C37.536 62.984 39.744 62.696 41.472 62.12C43.264 61.544 44.16 60.36 44.16 58.568C44.16 56.968 43.168 55.784 41.184 55.016C39.264 54.184 36.096 53.32 31.68 52.424C26.304 51.272 21.856 50.088 18.336 48.872C14.816 47.592 11.744 45.512 9.12 42.632C6.496 39.752 5.184 35.848 5.184 30.92C5.184 23.688 7.968 18.376 13.536 14.984C19.168 11.528 26.272 9.8 34.848 9.8ZM77.3453 77V10.952H98.5613V77H77.3453ZM113.698 10.952H134.914V60.104H168.802V77H113.698V10.952ZM177.729 10.952H198.945V60.104H232.833V77H177.729V10.952Z" fill="#005C95"/>
<path d="M364.352 76L336.608 43.936V76H317.12V9.952H335.648L363.392 42.496V9.952H382.88V76H364.352Z" fill="#005C95"/>
<path d="M306.567 33.3197C303.989 24.5837 298.189 17.4231 290.169 13.1267C282.15 8.83035 272.984 7.82786 264.32 10.4057C255.584 12.9835 248.423 18.7836 244.127 26.8035C239.83 34.8234 238.828 43.989 241.406 52.6533C243.984 61.3893 249.784 68.5499 257.803 72.8462C262.816 75.5673 268.401 76.9994 273.986 76.9994C277.209 76.9994 280.503 76.4982 283.725 75.5673C292.461 72.9895 299.621 67.1894 303.918 59.1695C308.214 51.2212 309.145 41.984 306.567 33.3197ZM260.023 46.1372C260.381 45.9939 260.811 46.2804 260.954 46.6384V46.7816C261.957 50.2903 264.248 53.1546 267.399 54.8731C267.542 54.9447 267.685 55.0163 267.828 55.0879C268.186 55.3027 268.33 55.7324 268.186 56.0904C268.043 56.3768 267.828 56.52 267.542 56.52C267.399 56.52 267.327 56.52 267.184 56.4484C267.041 56.3768 266.826 56.3052 266.683 56.162C263.174 54.2286 260.596 51.0064 259.522 47.2112L259.45 47.068C259.45 46.6384 259.665 46.2088 260.023 46.1372ZM249.497 42.7717C249.927 42.7717 250.213 43.0581 250.213 43.4877C250.285 46.1372 250.786 48.7866 251.717 51.2928C253.579 56.3768 257.016 60.4584 261.599 63.251C261.957 63.4658 262.028 63.8955 261.813 64.2535C261.67 64.4683 261.455 64.6115 261.169 64.6115C261.026 64.6115 260.883 64.6115 260.811 64.5399C255.942 61.6041 252.29 57.2361 250.285 51.8656C249.282 49.2162 248.71 46.4236 248.71 43.5593C248.781 43.1297 249.068 42.7717 249.497 42.7717ZM262.028 69.982C261.885 70.2684 261.67 70.4116 261.384 70.4116C261.312 70.4116 261.169 70.4116 261.097 70.34C259.88 69.7672 258.734 69.1227 257.589 68.4067C251.431 64.4683 246.991 58.4534 244.914 51.5076C244.771 51.1496 245.058 50.7199 245.416 50.5767C245.774 50.4335 246.203 50.6483 246.347 51.078C248.28 57.6657 252.576 63.3942 258.376 67.1894C259.45 67.9054 260.525 68.4783 261.67 69.0511C262.028 69.1943 262.171 69.624 262.028 69.982ZM269.547 61.8905C269.475 62.1769 269.189 62.3917 268.831 62.3917C268.759 62.3917 268.688 62.3917 268.616 62.3917C268.258 62.3201 267.972 62.1769 267.614 62.1053C266.468 61.7473 265.322 61.246 264.248 60.6016C259.594 57.9522 256.157 53.7274 254.653 48.5718C254.223 46.9964 253.937 45.4211 253.865 43.8458C253.865 43.4161 254.152 43.1297 254.581 43.0581C254.939 43.0581 255.297 43.3445 255.369 43.7742C255.44 45.2779 255.655 46.71 256.085 48.1421C257.445 52.9397 260.596 56.8781 264.964 59.3127C265.967 59.8855 267.041 60.3152 268.115 60.6732C268.401 60.7448 268.759 60.888 269.046 60.9596C269.404 61.1028 269.69 61.4609 269.547 61.8905ZM278.498 51.436C273.843 53.9422 268.043 52.1521 265.537 47.4977C263.031 42.8433 264.821 37.0432 269.475 34.537C274.13 32.0307 279.93 33.8209 282.436 38.4753C284.942 43.1297 283.152 49.0014 278.498 51.436ZM287.95 39.8358C287.878 39.8358 287.806 39.8358 287.735 39.8358C287.448 39.8358 287.09 39.621 287.019 39.3346V39.1914C286.016 35.6827 283.725 32.8184 280.574 31.0999C280.431 31.0283 280.288 30.9566 280.073 30.885C279.715 30.6702 279.572 30.2406 279.787 29.8826C280.001 29.5245 280.431 29.3813 280.789 29.5961C280.932 29.6677 281.147 29.7393 281.29 29.8826C284.799 31.8159 287.377 35.0382 288.451 38.8333L288.523 38.9765C288.523 39.3346 288.308 39.7642 287.95 39.8358ZM293.392 42.9149C292.962 42.9149 292.676 42.6285 292.604 42.1988C292.532 40.6951 292.318 39.263 291.888 37.8308C290.528 33.0332 287.377 29.0949 283.009 26.6603C282.006 26.0874 280.932 25.6578 279.858 25.2998C279.572 25.2282 279.214 25.0849 278.927 25.0133C278.569 24.9417 278.283 24.5121 278.426 24.1541C278.498 23.796 278.927 23.5096 279.285 23.6528C279.643 23.7244 279.93 23.8676 280.288 23.9392C281.434 24.2973 282.579 24.7985 283.653 25.443C288.379 28.0208 291.816 32.2456 293.32 37.4012C293.75 38.9765 294.036 40.5519 294.108 42.1272C294.108 42.5568 293.75 42.8433 293.392 42.9149ZM298.476 43.2013C298.046 43.2013 297.76 42.9149 297.76 42.4852C297.688 39.8358 297.187 37.1864 296.256 34.6802C294.394 29.5961 290.957 25.5146 286.374 22.7219C286.016 22.5071 285.945 22.0775 286.16 21.7195C286.374 21.3614 286.804 21.2898 287.162 21.5046C292.031 24.4405 295.683 28.8085 297.688 34.1789C298.691 36.8284 299.263 39.621 299.263 42.4852C299.192 42.8433 298.905 43.2013 298.476 43.2013ZM302.557 35.3246C302.486 35.3246 302.414 35.3246 302.343 35.3246C302.056 35.3246 301.77 35.1098 301.626 34.8234C299.693 28.2356 295.397 22.5071 289.597 18.712C288.523 17.9959 287.448 17.4231 286.303 16.8502C285.945 16.707 285.801 16.2774 285.945 15.8478C286.088 15.4897 286.518 15.3465 286.947 15.4897C288.164 16.0626 289.31 16.707 290.456 17.4231C296.542 21.3614 301.054 27.3763 303.059 34.3221C303.13 34.8234 302.915 35.253 302.557 35.3246Z" fill="#262626"/>
<path d="M274.416 41.6259C273.628 41.4111 272.841 41.8407 272.626 42.6284C272.411 43.4161 272.841 44.2037 273.628 44.4186C274.416 44.6334 275.204 44.2037 275.419 43.4161C275.633 42.6284 275.204 41.8407 274.416 41.6259Z" fill="#262626"/>
</svg>
